# xmcd
#
# Track frame offsets: 
#        150
#        17243
#        41189
#        66617
#        90692
#        110734
#        124918
#        143545
#        182678
#        206482
#        225021
#        245457
#        267619
#
# Disc length: 3750 seconds
#
# Revision: 0
# Processed by: cddbd v1.5.1PL0 Copyright (c) Steve Scherf et al.
# Submitted via: ExactAudioCopy v0.95b1
#
DISCID=bd0ea40d
DTITLE=Black Coffe - Marble Tones
DYEAR=2005
DGENRE=blues
TTITLE0=Peaches
TTITLE1=Black coffee
TTITLE2=Way down in Florida
TTITLE3=Interstate 95
TTITLE4=So down
TTITLE5=It's too late brother
TTITLE6=Got to move
TTITLE7=Littel queen of spades
TTITLE8=Freddie
TTITLE9=Jealous nature
TTITLE10=Fulltime lover
TTITLE11=Learn to treat me right
TTITLE12=Rebirth
EXTD=
EXTT0=
EXTT1=
EXTT2=
EXTT3=
EXTT4=
EXTT5=
EXTT6=
EXTT7=
EXTT8=
EXTT9=
EXTT10=
EXTT11=
EXTT12=
PLAYORDER=
